<svg xmlns="http://www.w3.org/2000/svg" xmlns:xlink="http://www.w3.org/1999/xlink" width="250" height="250" viewBox="0 0 250 250"><defs><radialGradient id="a" cx="0.5" cy="0.5" r="0.5" gradientUnits="objectBoundingBox"><stop offset="0" stop-color="#e032e0"/><stop offset="0.606" stop-color="#b70c69"/><stop offset="1" stop-color="#db161a"/></radialGradient><linearGradient id="b" x1="0.5" x2="0.5" y2="1" gradientUnits="objectBoundingBox"><stop offset="0" stop-color="#fff" stop-opacity="0"/><stop offset="1" stop-color="#fff"/></linearGradient><clipPath id="d"><rect width="250" height="250"/></clipPath></defs><g id="c" clip-path="url(#d)"><path d="M1012.891,617.812c25.119-9.354,64.422,18.361,81.915,7.853s28.577-28.066,22.136-49c-2.821-9.168-16.8-53.566-18.974-76.4-2.73-28.73,13.179-59.875,2.995-74.073-18.121-25.263-71.827-9.428-71.827-9.428-38.836,5.795-47.5-20.133-86.588-22.847a69.984,69.984,0,0,0-64.54,33.381c-12.318,24.249,18.5,107.717,15.412,130.089s-28.2,18.386-24.2,40.671,48.931,53.506,80.065,43.91S987.771,627.166,1012.891,617.812Z" transform="translate(-868.793 -393.753)" opacity="0.713" fill="url(#a)"/><g opacity="0.904"><g transform="translate(49 49)" fill="url(#b)"><path d="M 76 142 C 39.60747146606445 142 10 112.3925323486328 10 76 C 10 39.60747146606445 39.60747146606445 10 76 10 C 112.3925323486328 10 142 39.60747146606445 142 76 C 142 112.3925323486328 112.3925323486328 142 76 142 Z" stroke="none"/><path d="M 76 20 C 45.12149810791016 20 20 45.12149810791016 20 76 C 20 106.8785018920898 45.12149810791016 132 76 132 C 106.8785018920898 132 132 106.8785018920898 132 76 C 132 45.12149810791016 106.8785018920898 20 76 20 M 76 0 C 117.9736175537109 0 152 34.02634429931641 152 76 C 152 117.9736175537109 117.9736175537109 152 76 152 C 34.02634429931641 152 0 117.9736175537109 0 76 C 0 34.02634429931641 34.02634429931641 0 76 0 Z" stroke="none" fill="#fff"/></g><g transform="translate(168 162)" fill="none" stroke="#fff" stroke-width="9"><circle cx="26" cy="26" r="26" stroke="none"/><circle cx="26" cy="26" r="21.5" fill="none"/></g></g><text transform="translate(78 137)" fill="#de5154" font-size="36" font-family="AvenirNext-Bold, Avenir Next" font-weight="700" letter-spacing="0.02em"><tspan x="0" y="0">Agile</tspan></text></g></svg>