<svg xmlns="http://www.w3.org/2000/svg" xmlns:xlink="http://www.w3.org/1999/xlink" width="250" height="250" viewBox="0 0 250 250"><defs><clipPath id="b"><rect width="250" height="250"/></clipPath></defs><g id="a" clip-path="url(#b)"><rect width="25" height="25"/><rect width="25" height="25" transform="translate(25)" fill="#fff"/><rect width="25" height="25" transform="translate(25 25)"/><rect width="25" height="25" transform="translate(0 25)" fill="#fff"/><g transform="translate(50)"><rect width="25" height="25"/><rect width="25" height="25" transform="translate(25)" fill="#fff"/><rect width="25" height="25" transform="translate(25 25)"/><rect width="25" height="25" transform="translate(0 25)" fill="#fff"/></g><g transform="translate(100)"><rect width="25" height="25"/><rect width="25" height="25" transform="translate(25)" fill="#fff"/><rect width="25" height="25" transform="translate(25 25)"/><rect width="25" height="25" transform="translate(0 25)" fill="#fff"/></g><g transform="translate(150)"><rect width="25" height="25"/><rect width="25" height="25" transform="translate(25)" fill="#fff"/><rect width="25" height="25" transform="translate(25 25)"/><rect width="25" height="25" transform="translate(0 25)" fill="#fff"/></g><g transform="translate(200)"><rect width="25" height="25"/><rect width="25" height="25" transform="translate(25)" fill="#fff"/><rect width="25" height="25" transform="translate(25 25)"/><rect width="25" height="25" transform="translate(0 25)" fill="#fff"/></g><g transform="translate(0 50)"><rect width="25" height="25"/><rect width="25" height="25" transform="translate(25)" fill="#fff"/><rect width="25" height="25" transform="translate(25 25)"/><rect width="25" height="25" transform="translate(0 25)" fill="#fff"/></g><g transform="translate(50 50)"><rect width="25" height="25"/><rect width="25" height="25" transform="translate(25)" fill="#fff"/><rect width="25" height="25" transform="translate(25 25)"/><rect width="25" height="25" transform="translate(0 25)" fill="#fff"/></g><g transform="translate(100 50)"><rect width="25" height="25"/><rect width="25" height="25" transform="translate(25)" fill="#fff"/><rect width="25" height="25" transform="translate(25 25)"/><rect width="25" height="25" transform="translate(0 25)" fill="#fff"/></g><g transform="translate(150 50)"><rect width="25" height="25"/><rect width="25" height="25" transform="translate(25)" fill="#fff"/><rect width="25" height="25" transform="translate(25 25)"/><rect width="25" height="25" transform="translate(0 25)" fill="#fff"/></g><g transform="translate(200 50)"><rect width="25" height="25"/><rect width="25" height="25" transform="translate(25)" fill="#fff"/><rect width="25" height="25" transform="translate(25 25)"/><rect width="25" height="25" transform="translate(0 25)" fill="#fff"/></g><g transform="translate(0 100)"><rect width="25" height="25"/><rect width="25" height="25" transform="translate(25)" fill="#fff"/><rect width="25" height="25" transform="translate(25 25)"/><rect width="25" height="25" transform="translate(0 25)" fill="#fff"/></g><g transform="translate(50 100)"><rect width="25" height="25"/><rect width="25" height="25" transform="translate(25)" fill="#fff"/><rect width="25" height="25" transform="translate(25 25)"/><rect width="25" height="25" transform="translate(0 25)" fill="#fff"/></g><g transform="translate(100 100)"><rect width="25" height="25"/><rect width="25" height="25" transform="translate(25)" fill="#fff"/><rect width="25" height="25" transform="translate(25 25)"/><rect width="25" height="25" transform="translate(0 25)" fill="#fff"/></g><g transform="translate(150 100)"><rect width="25" height="25"/><rect width="25" height="25" transform="translate(25)" fill="#fff"/><rect width="25" height="25" transform="translate(25 25)"/><rect width="25" height="25" transform="translate(0 25)" fill="#fff"/></g><g transform="translate(200 100)"><rect width="25" height="25"/><rect width="25" height="25" transform="translate(25)" fill="#fff"/><rect width="25" height="25" transform="translate(25 25)"/><rect width="25" height="25" transform="translate(0 25)" fill="#fff"/></g><g transform="translate(0 150)"><rect width="25" height="25"/><rect width="25" height="25" transform="translate(25)" fill="#fff"/><rect width="25" height="25" transform="translate(25 25)"/><rect width="25" height="25" transform="translate(0 25)" fill="#fff"/></g><g transform="translate(50 150)"><rect width="25" height="25"/><rect width="25" height="25" transform="translate(25)" fill="#fff"/><rect width="25" height="25" transform="translate(25 25)"/><rect width="25" height="25" transform="translate(0 25)" fill="#fff"/></g><g transform="translate(100 150)"><rect width="25" height="25"/><rect width="25" height="25" transform="translate(25)" fill="#fff"/><rect width="25" height="25" transform="translate(25 25)"/><rect width="25" height="25" transform="translate(0 25)" fill="#fff"/></g><g transform="translate(150 150)"><rect width="25" height="25"/><rect width="25" height="25" transform="translate(25)" fill="#fff"/><rect width="25" height="25" transform="translate(25 25)"/><rect width="25" height="25" transform="translate(0 25)" fill="#fff"/></g><g transform="translate(200 150)"><rect width="25" height="25"/><rect width="25" height="25" transform="translate(25)" fill="#fff"/><rect width="25" height="25" transform="translate(25 25)"/><rect width="25" height="25" transform="translate(0 25)" fill="#fff"/></g><g transform="translate(0 200)"><rect width="25" height="25"/><rect width="25" height="25" transform="translate(25)" fill="#fff"/><rect width="25" height="25" transform="translate(25 25)"/><rect width="25" height="25" transform="translate(0 25)" fill="#fff"/></g><g transform="translate(50 200)"><rect width="25" height="25"/><rect width="25" height="25" transform="translate(25)" fill="#fff"/><rect width="25" height="25" transform="translate(25 25)"/><rect width="25" height="25" transform="translate(0 25)" fill="#fff"/></g><g transform="translate(100 200)"><rect width="25" height="25"/><rect width="25" height="25" transform="translate(25)" fill="#fff"/><rect width="25" height="25" transform="translate(25 25)"/><rect width="25" height="25" transform="translate(0 25)" fill="#fff"/></g><g transform="translate(150 200)"><rect width="25" height="25"/><rect width="25" height="25" transform="translate(25)" fill="#fff"/><rect width="25" height="25" transform="translate(25 25)"/><rect width="25" height="25" transform="translate(0 25)" fill="#fff"/></g><g transform="translate(200 200)"><rect width="25" height="25"/><rect width="25" height="25" transform="translate(25)" fill="#fff"/><rect width="25" height="25" transform="translate(25 25)"/><rect width="25" height="25" transform="translate(0 25)" fill="#fff"/></g><rect width="250" height="250" opacity="0.105"/><g transform="translate(-1)"><rect width="31" height="77" transform="translate(95 115)" fill="#a0a0a0"/><path d="M15,0H54a0,0,0,0,1,0,0V19a0,0,0,0,1,0,0H0a0,0,0,0,1,0,0V15A15,15,0,0,1,15,0Z" transform="translate(72 189)" fill="#817f7f"/><rect width="31" height="17" transform="translate(95 98)" fill="#817f7f"/><path d="M14,17V0H0Z" transform="translate(81 98)" fill="#817f7f"/><rect width="45" height="25" transform="translate(81 73)" fill="#a0a0a0"/><rect width="16" height="21" transform="translate(81 58)" fill="#a0a0a0"/><rect width="16" height="21" transform="translate(105 58)" fill="#a0a0a0"/><rect width="63" height="18" transform="translate(63 207)" fill="#a0a0a0"/><g transform="translate(126 58)"><rect width="31" height="77" transform="translate(0 57)" fill="#626262"/><rect width="31" height="17" transform="translate(0 40)" fill="#363636"/><path d="M0,17V0H14Z" transform="translate(31 40)" fill="#363636"/><rect width="45" height="25" transform="translate(0 15)" fill="#626262"/><rect width="16" height="21" transform="translate(29)" fill="#626262"/><rect width="16" height="21" transform="translate(5)" fill="#626262"/><path d="M0,0H39A15,15,0,0,1,54,15v4a0,0,0,0,1,0,0H0a0,0,0,0,1,0,0V0A0,0,0,0,1,0,0Z" transform="translate(0 131)" fill="#363636"/><rect width="63" height="18" transform="translate(0 149)" fill="#626262"/></g></g></g></svg>