<svg xmlns="http://www.w3.org/2000/svg" xmlns:xlink="http://www.w3.org/1999/xlink" width="250" height="250" viewBox="0 0 250 250"><defs><clipPath id="b"><rect width="250" height="250"/></clipPath></defs><g id="a" clip-path="url(#b)"><g transform="translate(-62.857 -45.003)"><line x2="170" y2="183" transform="translate(101.857 64.003)" fill="none" stroke="#428be0" stroke-width="4"/><line x1="163" y1="62" transform="translate(271.857 98.003)" fill="none" stroke="#2c5e98" stroke-width="6"/><line x1="167" y2="55" transform="translate(267.857 47.003)" fill="none" stroke="#3369a8" stroke-width="4"/><line x1="166" y2="145" transform="translate(271.857 98.003)" fill="none" stroke="#3369a8" stroke-width="5"/><line x1="163" y2="64" transform="translate(271.857 182.003)" fill="none" stroke="#2c5e98" stroke-width="5"/><line x1="166" y1="46" transform="translate(271.857 243.003)" fill="none" stroke="#295990" stroke-width="5"/><line x1="166" y1="146" transform="translate(271.857 102.003)" fill="none" stroke="#326fb5" stroke-width="5"/><line x2="118" y2="49" transform="translate(-15.143 19.003)" fill="none" stroke="#4593eb" stroke-width="4"/><line y1="26.021" x2="119.274" transform="translate(-15.5 66.041)" fill="none" stroke="#336fb4" stroke-width="4"/><line x2="112.051" y2="24.595" transform="translate(-9.754 148.486)" fill="none" stroke="#2c5e98" stroke-width="6"/><line y1="36.169" x2="114.924" transform="translate(-12.627 173.081)" fill="none" stroke="#1e4069" stroke-width="7"/><line y1="36.169" x2="114.924" transform="translate(-11.19 277.973)" fill="none" stroke="#336fb4" stroke-width="5"/><line x2="116.36" y2="29.659" transform="translate(-12.627 248.314)" fill="none" stroke="#336fb4" stroke-width="5"/><line x2="164" y2="73" transform="translate(103.857 173.003)" fill="none" stroke="#2c5e98" stroke-width="6"/><line y1="35" x2="168" transform="translate(103.857 243.003)" fill="none" stroke="#224772" stroke-width="7"/><line y1="180" x2="168" transform="translate(103.857 98.003)" fill="none" stroke="#3369a8" stroke-width="5"/><line y1="75" x2="164" transform="translate(103.857 98.003)" fill="none" stroke="#3c7dc7" stroke-width="5"/><line x2="170" y2="38" transform="translate(101.857 64.003)" fill="none" stroke="#295990" stroke-width="5"/><g transform="translate(87.857 46.003)" fill="#fff" stroke="#336fb4" stroke-width="7"><circle cx="19.5" cy="19.5" r="19.5" stroke="none"/><circle cx="19.5" cy="19.5" r="16" fill="none"/></g><g transform="translate(87.857 152.003)" fill="#fff" stroke="#336fb4" stroke-width="7"><circle cx="19.5" cy="19.5" r="19.5" stroke="none"/><circle cx="19.5" cy="19.5" r="16" fill="none"/></g><g transform="translate(87.857 256.003)" fill="#fff" stroke="#336fb4" stroke-width="7"><circle cx="19.5" cy="19.5" r="19.5" stroke="none"/><circle cx="19.5" cy="19.5" r="16" fill="none"/></g><g transform="translate(250.857 221.003)" fill="#fff" stroke="#336fb4" stroke-width="7"><circle cx="19.5" cy="19.5" r="19.5" stroke="none"/><circle cx="19.5" cy="19.5" r="16" fill="none"/></g><g transform="translate(250.857 79.003)" fill="#fff" stroke="#336fb4" stroke-width="7"><circle cx="19.5" cy="19.5" r="19.5" stroke="none"/><circle cx="19.5" cy="19.5" r="16" fill="none"/></g></g></g></svg>